<svg width="85" height="43" viewBox="0 0 85 43" fill="none" xmlns="http://www.w3.org/2000/svg">
<path d="M0.105738 0.0559148C0.0396517 0.106229 0 5.40184 0 11.8295V23.5025H2.51127H5.02255V19.4145V15.3264H7.65277C10.7588 15.3264 11.988 15.1126 13.6402 14.295C16.5348 12.861 18.0283 9.74148 17.46 6.28235C17.3146 5.37669 16.8387 3.87983 16.6801 3.75404C16.6273 3.7163 16.4951 3.51505 16.3894 3.31379C16.125 2.81064 14.7901 1.55278 14.2482 1.28862C14.0103 1.17542 13.7856 1.03705 13.7459 0.999314C13.6534 0.873528 12.596 0.521325 11.6312 0.282331C10.9306 0.118808 9.8204 0.0684934 5.48515 0.0181788C2.57736 -0.0195572 0.158607 0.00560014 0.105738 0.0559148ZM10.3227 4.71002C11.8294 5.13769 12.4771 6.00562 12.4771 7.65342C12.4771 8.88613 12.1466 9.61569 11.3404 10.144C10.468 10.71 9.92614 10.8232 7.37521 10.8861L5.02255 10.949V7.7289V4.50876H7.30913C9.01415 4.50876 9.78075 4.55907 10.3227 4.71002Z" fill="#363435"/>
<path d="M58.473 6.63456C56.8473 7.07481 55.5388 8.10626 54.8515 9.47733C53.3315 12.4962 54.8251 15.8799 58.2219 17.1C58.4466 17.1755 59.3189 17.2761 60.1913 17.3264C61.9359 17.427 62.121 17.5151 62.121 18.3076C62.121 19.0371 61.7773 19.1 57.561 19.1H53.9263V21.4396V23.7793L58.1955 23.729C62.2532 23.6786 62.4911 23.6661 63.2048 23.3893C64.9495 22.7352 66.2448 21.49 66.747 19.9554C67.1832 18.6346 67.0907 17.1 66.5223 15.9176C65.4782 13.817 63.3766 12.6849 60.5085 12.6849C59.4908 12.6849 59.2132 12.5088 59.2132 11.8673C59.2132 11.0874 59.3718 11.0497 63.2048 11.0497H66.6148V8.72261V6.39556L62.9537 6.40814C59.8741 6.40814 59.1471 6.44588 58.473 6.63456Z" fill="#B23835"/>
<path d="M36.5721 6.6094C36.5192 6.64713 36.4795 10.471 36.4795 15.1V23.5025H38.8586H41.2245L41.2642 18.4836L41.3038 13.4648L41.7136 12.9113C42.6388 11.6912 44.1323 11.2635 45.6259 11.8044C46.1545 11.9931 46.5378 12.2321 46.8551 12.5968C47.6745 13.5025 47.7142 13.817 47.7142 18.9365V23.5025H50.1065H52.4988L52.4327 18.4962C52.3666 12.9616 52.3402 12.7478 51.4547 11.1503C50.503 9.41444 48.9302 8.14399 46.9211 7.47732C45.2029 6.91128 43.2203 6.9616 41.436 7.60311C41.2774 7.666 41.2377 7.57795 41.2377 7.17544C41.2377 6.83581 41.1717 6.64713 41.0263 6.59682C40.7487 6.49619 36.6778 6.49619 36.5721 6.6094Z" fill="#8B3735"/>
<path d="M25.311 6.73518C23.2095 7.04965 21.6763 7.76663 20.2092 9.16286C19.2311 10.0811 18.9799 10.4207 18.4645 11.427C17.8036 12.7604 17.6186 13.4019 17.4996 14.7352C17.341 16.4836 18.0019 18.5843 19.1914 20.1063C20.87 22.2321 23.0773 23.4019 25.7736 23.5906C28.1924 23.7541 30.5318 23.0245 32.184 21.578L32.8448 20.9994L31.272 19.578C30.4128 18.7981 29.6595 18.144 29.6066 18.1189C29.5669 18.1063 29.3026 18.2572 29.025 18.4585C27.9016 19.3138 25.9983 19.5151 24.6369 18.9239C23.9232 18.6094 22.7336 17.6786 22.7336 17.4396C22.7336 17.3893 25.5621 17.339 29.0118 17.339H35.29V15.666C35.29 13.1629 34.9067 11.9679 33.4925 10.0937C32.488 8.74777 30.8358 7.62827 29.0779 7.09996C28.0998 6.79807 26.1305 6.60939 25.311 6.73518ZM28.1791 11.4019C28.8664 11.6912 30.2146 12.8107 30.0163 12.9239C29.9502 12.9616 28.2849 12.9868 26.3155 12.9616L22.7336 12.9239L22.9319 12.6346C23.2623 12.1566 24.2008 11.5151 24.9145 11.2635C25.7868 10.9742 27.3068 11.0245 28.1791 11.4019Z" fill="#603435"/>
<path d="M75.4704 6.73517C72.1793 7.04964 69.5623 8.74776 68.148 11.4899C66.932 13.8924 66.9849 16.7604 68.2934 19.1503C69.0204 20.4459 70.7254 22.0434 72.0339 22.6472C73.62 23.3893 74.413 23.5654 76.1312 23.5654C77.8627 23.5654 79.039 23.2887 80.4268 22.5591C81.2067 22.144 82.4755 21.1755 82.4755 20.9994C82.4755 20.9491 81.7618 20.2572 80.8894 19.4774L79.2902 18.056L78.9994 18.3201C78.1535 19.0623 76.4881 19.4774 75.2986 19.2509C74.4394 19.0874 73.3292 18.4585 72.7741 17.8295L72.3908 17.4019L78.6954 17.3641L84.9868 17.339V15.7163C84.9868 13.8044 84.7753 12.7729 84.1144 11.4899C83.2157 9.74147 81.8411 8.43329 80.0303 7.6031C78.6029 6.94901 76.7921 6.60938 75.4704 6.73517ZM78.1006 11.4144C78.735 11.7289 79.8717 12.7729 79.7528 12.949C79.6735 13.0748 72.6551 13.1125 72.5229 12.9868C72.2586 12.7352 73.6464 11.6031 74.6509 11.2383C75.4043 10.9616 77.3604 11.0622 78.1006 11.4144Z" fill="#DC3735"/>
<path d="M37.4048 35.012V42.8737H40.7223C44.8989 42.8737 45.7713 42.685 47.6613 41.4145C49.7629 40.0057 50.9656 37.9051 51.111 35.3894C51.2432 33.2762 50.4898 31.3642 48.8905 29.7416C46.8419 27.6535 45.2294 27.1503 40.4183 27.1503H37.4048V35.012ZM44.1059 30.446C45.3219 30.7353 46.7493 31.7541 47.2648 32.7101C48.0182 34.1063 48.0446 35.7667 47.3177 37.2762C47.0533 37.8296 46.0621 38.7856 45.3219 39.2007C44.5817 39.6284 43.2203 39.8674 41.859 39.8296L40.643 39.7919L40.6033 35.2007C40.5901 32.6724 40.6033 30.534 40.643 30.4585C40.7223 30.2447 43.26 30.2321 44.1059 30.446Z" fill="#DC3735"/>
<path d="M83.5329 31.5654C81.6957 31.9051 79.7528 33.3768 78.8804 35.1001C78.2196 36.3705 78.1138 37.1001 78.1138 40.2196V42.9366L79.6999 42.8988L81.286 42.8611V40.0686C81.2992 38.0435 81.3521 37.1378 81.471 36.7982C81.9204 35.6032 83.0967 34.6221 84.2863 34.4711L84.9207 34.3831L84.9604 32.8988L85 31.4271L84.5638 31.4397C84.3259 31.4522 83.8633 31.5026 83.5329 31.5654Z" fill="#DC3735"/>
<path d="M69.4565 31.7164C67.8176 32.0434 66.1654 33.1755 65.3856 34.4963C64.5265 35.9554 64.4075 38.0686 65.0816 39.5152C65.8482 41.163 67.1964 42.295 68.9939 42.8234C69.8927 43.0875 71.5845 43.0498 72.4965 42.7479C73.4085 42.446 73.3556 42.4586 73.3556 42.6724C73.3556 42.8234 73.6596 42.8611 74.8888 42.8988C75.7347 42.924 76.4484 42.9114 76.4749 42.8862C76.5013 42.8611 76.5277 40.295 76.5277 37.1881V31.5403L74.9813 31.578C73.4745 31.6158 73.4217 31.6283 73.382 31.8925C73.3556 32.056 73.3292 32.1818 73.3159 32.1818C73.3027 32.1818 72.9723 32.0686 72.5758 31.9177C71.677 31.5906 70.4742 31.5151 69.4565 31.7164ZM71.8092 34.8233C73.4349 35.5152 74.0032 37.4648 72.9855 38.8862C71.9281 40.3454 69.7076 40.4837 68.4784 39.1504C66.3901 36.8988 68.9278 33.6158 71.8092 34.8233Z" fill="#DC3735"/>
<path d="M0.118981 27.2007C0.0925462 27.2258 0.0793289 30.773 0.105763 35.0623L0.132198 42.8737L5.41909 42.8988L10.706 42.9366V41.4523V39.9806H7.00515H3.30433V38.2825V36.5843H6.99194H10.6928L10.7324 36.295C10.7588 36.1441 10.7588 35.4648 10.7324 34.7856L10.6928 33.5655H6.99194H3.29111L3.33077 31.8296L3.37042 30.1063L7.04481 30.0686L10.706 30.0434V28.5969V27.1503H5.44552C2.55095 27.1503 0.145415 27.1755 0.118981 27.2007Z" fill="#DC3735"/>
<path d="M12.5564 37.2384V42.9366L14.0367 42.9114L15.5303 42.8862L15.5964 39.4523C15.6492 36.4837 15.6889 35.968 15.9004 35.6158C16.1515 35.1629 16.971 34.6975 17.4997 34.6975C18.068 34.6975 18.8875 35.0875 19.2047 35.5026C19.4822 35.8799 19.4955 36.0183 19.5615 39.3894C19.6012 41.3013 19.6673 42.8737 19.7334 42.8737C19.7862 42.8737 20.4471 42.8737 21.2137 42.8737H22.6015V39.9303C22.6015 36.5969 22.7072 35.817 23.2227 35.3013C23.8968 34.6346 25.0863 34.534 25.8265 35.0875C26.5402 35.6158 26.5667 35.7919 26.5667 39.4648V42.8611L28.166 42.8988L29.7652 42.9366L29.7124 39.2258L29.6727 35.5151L29.263 34.6975C28.7607 33.6787 28.1792 33.0371 27.3068 32.5088C26.4213 31.9805 25.7472 31.8044 24.637 31.8044C23.4738 31.8044 22.9848 31.9428 21.9406 32.5466L21.0815 33.0371L20.5528 32.6975C19.4294 31.968 18.7156 31.7793 17.3939 31.8422C16.7331 31.8673 16.059 31.9428 15.9004 31.9931C15.6492 32.0686 15.5964 32.0434 15.5964 31.817C15.5964 31.5654 15.5303 31.5529 14.0764 31.5529H12.5564V37.2384Z" fill="#DC3735"/>
<path d="M57.4464 28.65C55.0093 31.3448 54.4126 32.0536 53.5823 33.2486C52.7052 34.5053 52.2091 35.5634 52.033 36.5358C51.9431 37.0152 51.9791 37.8849 52.1049 38.4191C52.5111 40.1004 53.6398 41.4837 55.2501 42.2507C56.8677 43.028 58.8843 43.028 60.5018 42.2541C61.325 41.8604 62.1841 41.1584 62.7053 40.4565C63.1474 39.8538 63.4997 39.08 63.6686 38.3129C63.7405 37.9945 63.7549 37.8438 63.7513 37.272C63.7513 36.6865 63.7405 36.5632 63.6686 36.279C63.3128 34.9025 62.4465 33.4609 60.811 31.5194C60.2107 30.8038 57.8886 28.2323 57.8454 28.2323C57.8346 28.2357 57.6549 28.4206 57.4464 28.65Z" fill="url(#paint0_linear_30_277)"/>
<path d="M59.9943 36.8866H59.414C59.3117 36.8864 59.2122 36.9193 59.1306 36.9802C59.0491 37.0411 58.99 37.1267 58.9624 37.2239L58.4125 39.1552C58.409 39.1672 58.4016 39.1777 58.3914 39.1852C58.3813 39.1927 58.369 39.1968 58.3563 39.1968C58.3437 39.1968 58.3314 39.1927 58.3212 39.1852C58.3111 39.1777 58.3037 39.1672 58.3002 39.1552L57.0086 34.6181C57.005 34.6061 56.9976 34.5955 56.9875 34.588C56.9774 34.5805 56.9651 34.5765 56.9524 34.5765C56.9398 34.5765 56.9274 34.5805 56.9173 34.588C56.9072 34.5955 56.8998 34.6061 56.8963 34.6181L56.3464 36.5494C56.3189 36.6462 56.2601 36.7315 56.1791 36.7924C56.098 36.8533 55.999 36.8863 55.8971 36.8866H55.3145" stroke="white" stroke-linecap="round" stroke-linejoin="round"/>
<defs>
<linearGradient id="paint0_linear_30_277" x1="60.0299" y1="41.8037" x2="43.9069" y2="15.7048" gradientUnits="userSpaceOnUse">
<stop stop-color="#DC3735"/>
<stop offset="1" stop-color="#363435"/>
</linearGradient>
</defs>
</svg>
